<svg id="Capa_1" enable-background="new 0 0 512.022 512.022" height="512" viewBox="0 0 512.022 512.022" width="512" xmlns="http://www.w3.org/2000/svg"><g><path d="m507.576 249.323c-10.484-10.781-32.829-28.868-64.679-28.868h-307.764c-7.503 0-14.494-3.36-19.181-9.219l-47.28-59.1c-6.019-7.525-14.998-11.84-24.634-11.84h-28.522c-2.489 0-4.815 1.234-6.21 3.295s-1.677 4.68-.753 6.99l27.949 69.874h-29.002c-4.142 0-7.5 3.358-7.5 7.5s3.358 7.5 7.5 7.5h17.565c-.657 2.06-1.017 4.25-1.017 6.524 0 9.308 5.924 17.518 14.742 20.429 26.549 8.767 94.611 29.158 153.076 29.158h72.672c-.004.172-.013.343-.013.516 0 12.976 10.556 23.532 23.532 23.532h48.096c8.555 0 15.516-6.961 15.516-15.516v-16.032c0-8.556-6.96-15.516-15.516-15.516h-31.27l-111.446-23.882c-3.059-.655-6.202.657-7.889 3.292-1.686 2.635-1.56 6.04.317 8.542l15.048 20.063h-9.048c-18.751 0-70.745-2.768-148.373-28.401-2.659-.878-4.445-3.364-4.445-6.186 0-3.597 2.927-6.524 6.524-6.524h397.325c13.424 0 24.872 3.962 34.047 9.048h-12.537c-4.142 0-7.5 3.357-7.5 7.5 0 4.142 3.358 7.5 7.5 7.5h32.063c.025 0 .049-.004.074-.004.091.093.188.189.277.281.173.179.256.455.078.639-5.862 6.031-18.589 16.147-37.972 16.147h-82.699c-4.142 0-7.5 3.358-7.5 7.5s3.358 7.5 7.5 7.5h82.699c24.898 0 41.216-12.965 48.728-20.692 5.854-6.019 5.819-15.485-.078-21.55zm-170.908 34.744v16.032c0 .285-.231.516-.516.516h-48.096c-4.705 0-8.532-3.828-8.532-8.532s3.827-8.531 8.532-8.531h48.096c.285-.001.516.23.516.515zm-126.778-20.532 60.546 12.975c-.017.019-.033.038-.049.057h-50.724zm-165.852-108.239c5.054 0 9.764 2.264 12.921 6.211l47.159 58.948h-51.461l-26.063-65.159z"/><path d="m439.923 252.003c0-4.143-3.358-7.5-7.5-7.5h-.081c-4.142 0-7.46 3.357-7.46 7.5 0 4.142 3.398 7.5 7.541 7.5s7.5-3.358 7.5-7.5z"/><path d="m375.796 252.003c0-4.143-3.358-7.5-7.5-7.5h-.08c-4.142 0-7.46 3.357-7.46 7.5 0 4.142 3.398 7.5 7.54 7.5s7.5-3.358 7.5-7.5z"/><path d="m304.088 244.503c-4.142 0-7.46 3.357-7.46 7.5 0 4.142 3.398 7.5 7.54 7.5s7.5-3.358 7.5-7.5c0-4.143-3.358-7.5-7.5-7.5z"/><path d="m127.739 244.503h-.081c-4.142 0-7.46 3.357-7.46 7.5 0 4.142 3.398 7.5 7.541 7.5s7.5-3.358 7.5-7.5c0-4.143-3.358-7.5-7.5-7.5z"/><path d="m407.859 252.003c0-4.143-3.358-7.5-7.5-7.5h-.08c-4.142 0-7.46 3.357-7.46 7.5 0 4.142 3.398 7.5 7.54 7.5s7.5-3.358 7.5-7.5z"/><path d="m336.152 244.503c-4.142 0-7.46 3.357-7.46 7.5 0 4.142 3.398 7.5 7.54 7.5s7.5-3.358 7.5-7.5c0-4.143-3.358-7.5-7.5-7.5z"/><path d="m159.802 244.503c-4.142 0-7.46 3.357-7.46 7.5 0 4.142 3.398 7.5 7.54 7.5s7.5-3.358 7.5-7.5c0-4.143-3.358-7.5-7.5-7.5z"/><path d="m272.025 195.376h40.08c4.142 0 7.5-3.358 7.5-7.5 0-13.544 11.019-24.563 24.563-24.563 4.974 0 9.779 1.5 13.898 4.339 3.126 2.155 7.368 1.632 9.879-1.213 6.34-7.185 14.976-11.142 24.318-11.142 15.383 0 28.3 10.72 31.698 25.08h-15.666c-4.142 0-7.5 3.358-7.5 7.5s3.358 7.5 7.5 7.5h56.111c4.142 0 7.5-3.358 7.5-7.5s-3.358-7.5-7.5-7.5h-25.16c-3.608-22.684-23.299-40.08-46.983-40.08-11.458 0-22.524 4.253-31.168 11.833-5.27-2.51-11.023-3.817-16.927-3.817-19.252 0-35.336 13.821-38.851 32.063h-33.292c-4.142 0-7.5 3.358-7.5 7.5s3.358 7.5 7.5 7.5z"/><path d="m247.862 356.726h-25.039c-3.606-22.686-23.305-40.08-46.989-40.08-11.458 0-22.524 4.253-31.168 11.833-5.27-2.51-11.023-3.817-16.927-3.817-19.252 0-35.337 13.821-38.851 32.063h-33.293c-4.142 0-7.5 3.357-7.5 7.5 0 4.142 3.358 7.5 7.5 7.5h40.08c4.142 0 7.5-3.358 7.5-7.5 0-13.545 11.02-24.563 24.564-24.563 4.973 0 9.779 1.5 13.898 4.339 3.126 2.154 7.369 1.632 9.879-1.214 6.34-7.185 14.976-11.141 24.318-11.141 17.964 0 32.58 14.615 32.58 32.58 0 4.142 3.358 7.5 7.5 7.5h31.948c4.142 0 7.5-3.358 7.5-7.5 0-4.143-3.358-7.5-7.5-7.5z"/></g></svg>